Coordinates
version=1
nRows=21
nColumns=12
inDegrees=yes

Units are S.I. units (second, meters, Newtons, ...)
Angles are in degrees

endheader
time	SC_y	SC_z	SC_x	AC_y	AC_z	AC_x	GH_y	GH_z	GH_yy	EL_x	PS_y
       0.0              -37.69         -4.315          11.66          44.61         -17.82         -11.61          33.18          87.75          38.02          82.63          46.74
   0.02742              -37.69         -4.314          11.66          44.61         -17.81         -11.61          33.19          87.74          38.01          82.62          46.75
   0.05484              -37.68         -4.312          11.67          44.61         -17.81          -11.6           33.2          87.73          37.99          82.61          46.76
   0.08226              -37.68         -4.311          11.68          44.61         -17.81          -11.6          33.22          87.72          37.98           82.6          46.77
    0.1097              -37.68         -4.309          11.69          44.61         -17.81         -11.59          33.23          87.71          37.96          82.59          46.78
    0.1371              -37.68         -4.307           11.7          44.61         -17.81         -11.59          33.25           87.7          37.94          82.57          46.79
    0.1645              -37.67         -4.306           11.7           44.6         -17.81         -11.58          33.26          87.69          37.93          82.56           46.8
    0.1919              -37.67         -4.303          11.71           44.6         -17.81         -11.57          33.28          87.67          37.91          82.55          46.82
    0.2194              -37.67         -4.301          11.73           44.6         -17.81         -11.57           33.3          87.66          37.89          82.53          46.83
    0.2468              -37.66         -4.299          11.74           44.6         -17.81         -11.56          33.32          87.65          37.86          82.51          46.84
    0.2742              -37.66         -4.296          11.75          44.59         -17.81         -11.55          33.34          87.63          37.84          82.49          46.86
    0.3016              -37.65         -4.294          11.76          44.59         -17.81         -11.54          33.36          87.61          37.81          82.47          46.88
     0.329              -37.65         -4.291          11.78          44.59          -17.8         -11.53          33.39          87.59          37.78          82.45           46.9
    0.3564              -37.64         -4.288          11.79          44.58          -17.8         -11.52          33.42          87.58          37.75          82.43          46.91
    0.3839              -37.64         -4.284          11.81          44.58          -17.8         -11.51          33.45          87.55          37.72           82.4          46.94
    0.4113              -37.63          -4.28          11.83          44.57          -17.8          -11.5          33.48          87.53          37.68          82.38          46.96
    0.4387              -37.63         -4.276          11.85          44.57          -17.8         -11.49          33.51          87.51          37.65          82.35          46.98
    0.4661              -37.62         -4.272          11.87          44.56          -17.8         -11.47          33.55          87.48           37.6          82.31          47.01
    0.4935              -37.61         -4.267          11.89          44.56         -17.79         -11.46          33.59          87.45          37.56          82.28          47.04
     0.521               -37.6         -4.262          11.92          44.55         -17.79         -11.44          33.64          87.42          37.51          82.24          47.07
    0.5484              -37.59         -4.256          11.95          44.54         -17.79         -11.42          33.69          87.38          37.45           82.2          47.11
